<svg xmlns="http://www.w3.org/2000/svg" xmlns:xlink="http://www.w3.org/1999/xlink" id="sampler-fill-swatch-bg" width="100%" height="100%" preserveAspectRatio="xMidYMid" viewBox="0 0 14 14"><rect width="14" height="14" fill="#fff" class="cls-1" opacity=".25" rx="2" ry="2"/><path fill="#e6e6e6" d="M11.000,13.000 L7.000,13.000 L7.000,7.000 L13.000,7.000 L13.000,11.000 C13.000,12.105 12.105,13.000 11.000,13.000 ZM1.000,3.000 C1.000,1.895 1.895,1.000 3.000,1.000 L7.000,1.000 L7.000,7.000 L1.000,7.000 L1.000,3.000 Z"/><path fill="#fff" d="M7.000,7.000 L7.000,1.000 L11.000,1.000 C12.105,1.000 13.000,1.895 13.000,3.000 L13.000,7.000 L7.000,7.000 ZM3.000,13.000 C1.895,13.000 1.000,12.105 1.000,11.000 L1.000,7.000 L7.000,7.000 L7.000,13.000 L3.000,13.000 Z"/></svg>